<?xml version="1.0" ?><svg data-name="Layer 5" id="Layer_5" viewBox="0 0 32 32" xmlns="http://www.w3.org/2000/svg"><defs><style>.cls-1.cls-2</style></defs><path class="cls-1" d="M15.05,18.55c-1-2.52-3-5.22-6-4.66s-3.26,4.58-2,6.86a35.66,35.66,0,0,0,4.52,5.81c.53.61,1.09,1.21,1.67,1.77s1.58,1.81,2.55,2.08c1.23.35,2.66-2.66,3.19-3.52,1.05-1.7,2-3.47,2.92-5.23s1.65-3.57,2.44-5.35c1.26-2.85,2.66-6,2.77-9.19A3.77,3.77,0,0,0,25.44,3.5a4.6,4.6,0,0,0-4-.28c-1.47.6-2.33,2.08-3,3.44a36,36,0,0,0-2,5.33A58.84,58.84,0,0,0,15.05,18.55Z"/><path class="cls-2" d="M15.89,28.28C17,28.28,28.28,6.16,24,4.62s-7.32,16.49-8.28,16.74S11.72,13.64,8.8,16,14.75,28.28,15.89,28.28Z"/></svg>